<?xml version="1.0" encoding="iso-8859-1"?>
<!-- Generator: Adobe Illustrator 19.1.0, SVG Export Plug-In . SVG Version: 6.00 Build 0)  -->
<svg version="1.1" id="Capa_1" xmlns="http://www.w3.org/2000/svg" xmlns:xlink="http://www.w3.org/1999/xlink" x="0px" y="0px"
	 viewBox="0 0 512 512" style="enable-background:new 0 0 512 512;" xml:space="preserve">
<g>
	<g>
		<g>
			<path style="fill:#9F6459;" d="M504,360H8c-4.422,0-8-3.582-8-8s3.578-8,8-8h496c4.422,0,8,3.582,8,8S508.422,360,504,360z"/>
		</g>
	</g>
	<g>
		<g>
			<path style="fill:#FF4F19;" d="M327.043,325.006l-9.07-54.296h-0.026c-1.259-7.342-6.307-14.945-14.901-17.351
				c-0.106-0.03-0.212-0.053-0.321-0.069l-21.161-3.175c-0.129-0.019-0.406-0.03-0.538-0.03c-1.338,0-2.467,0.998-2.63,2.327
				c-1.127,9.149-8.691,16.333-18.425,18.297h-10.62c-9.735-1.965-17.299-9.147-18.424-18.297c-0.166-1.368-1.398-2.397-2.698-2.326
				c-0.155-0.009-0.308,0.004-0.471,0.028l-21.161,3.175c-0.109,0.016-0.215,0.039-0.321,0.069
				c-8.594,2.406-13.641,10.009-14.901,17.351h-0.026l-9.07,54.296c-1.878,9.86,5.68,18.994,15.717,18.994h0.665h112h0.665
				C321.362,344,328.921,334.866,327.043,325.006z"/>
		</g>
		<g>
			<path style="fill:#FDC88E;" d="M254.66,247.435c-9.26,0-17.661-3.974-23.86-10.396c-0.005,3.849-0.144,9.404-1.165,13.457
				c0.669,0.409,1.189,1.081,1.29,1.917c1.323,10.764,11.525,18.88,23.734,18.88c12.206,0,22.409-8.117,23.734-18.88
				c0.103-0.837,0.611-1.508,1.291-1.915c-1.021-4.054-1.161-9.609-1.165-13.459C272.322,243.461,263.92,247.435,254.66,247.435z"/>
		</g>
		<g>
			<path style="fill:#FFB980;" d="M278.002,237.528c-6.147,6.123-14.329,9.907-23.342,9.907c-9.26,0-17.661-3.974-23.86-10.396
				c-0.005,3.849-0.144,9.404-1.165,13.457c0.669,0.409,1.189,1.081,1.29,1.917c0.585,4.758,2.909,8.995,6.37,12.246
				C253.257,262.411,271.374,246.65,278.002,237.528z"/>
		</g>
		<g>
			<path style="fill:#FFE1B2;" d="M278.519,181.161h-45.066c-7.308,0-13.255,5.947-13.255,13.255v15.906
				c0,20.465,15.461,37.114,34.463,37.114s34.463-16.649,34.463-37.114v-18.557C289.123,185.918,284.367,181.161,278.519,181.161z"
				/>
		</g>
		<g>
			<path style="fill:#7E5449;" d="M273.217,152h-34.463c-4.986,0-9.177,3.459-10.306,8.102c-9.126,1.16-16.204,8.973-16.204,18.408
				v13.255c0,6.832,2.9,13.205,7.953,17.735v-15.084c0-7.308,5.947-13.255,13.255-13.255h45.066c5.848,0,10.604,4.757,10.604,10.604
				v17.732c5.054-4.529,7.953-10.902,7.953-17.732v-15.906C297.076,162.703,286.374,152,273.217,152z"/>
		</g>
		<g>
			<path style="fill:#D8DCE1;" d="M298.66,344h-88c-4.418,0-8-3.582-8-8v-44c0-4.418,3.582-8,8-8h88c4.418,0,8,3.582,8,8v44
				C306.66,340.418,303.079,344,298.66,344z"/>
		</g>
		<g>
			<circle style="fill:#FFFFFF;" cx="254.66" cy="316" r="8"/>
		</g>
	</g>
	<g>
		<g>
			<path style="fill:#00E68C;" d="M159.712,325.006l-9.07-54.296h-0.026c-1.259-7.342-6.307-14.945-14.901-17.351
				c-0.106-0.03-0.212-0.053-0.321-0.069l-21.161-3.175c-0.129-0.019-0.406-0.03-0.538-0.03c-1.338,0-2.467,0.998-2.63,2.327
				c-1.127,9.149-8.691,16.333-18.425,18.297h-10.62c-9.735-1.965-17.299-9.147-18.424-18.297c-0.166-1.368-1.398-2.397-2.698-2.326
				c-0.155-0.009-0.308,0.004-0.471,0.028l-21.161,3.175c-0.109,0.016-0.215,0.039-0.321,0.069
				c-8.594,2.406-13.641,10.009-14.901,17.351h-0.026l-9.07,54.296C13.07,334.866,20.629,344,30.665,344h0.665h112h0.665
				C154.032,344,161.59,334.866,159.712,325.006z"/>
		</g>
		<g>
			<path style="fill:#FDC88E;" d="M87.33,247.435c-9.26,0-17.661-3.974-23.86-10.396c-0.005,3.849-0.144,9.404-1.165,13.457
				c0.669,0.409,1.189,1.081,1.29,1.917c1.323,10.764,11.525,18.88,23.734,18.88c12.206,0,22.409-8.117,23.734-18.88
				c0.103-0.837,0.611-1.508,1.291-1.915c-1.021-4.054-1.161-9.609-1.165-13.459C104.991,243.461,96.59,247.435,87.33,247.435z"/>
		</g>
		<g>
			<path style="fill:#FFB980;" d="M110.672,237.528c-6.147,6.123-14.329,9.907-23.342,9.907c-9.26,0-17.661-3.974-23.86-10.396
				c-0.005,3.849-0.144,9.404-1.165,13.457c0.669,0.409,1.189,1.081,1.29,1.917c0.585,4.758,2.909,8.995,6.37,12.246
				C85.927,262.411,104.043,246.65,110.672,237.528z"/>
		</g>
		<g>
			<path style="fill:#FFE1B2;" d="M111.189,181.161H66.123c-7.308,0-13.255,5.947-13.255,13.255v15.906
				c0,20.465,15.461,37.114,34.463,37.114s34.463-16.649,34.463-37.114v-18.557C121.793,185.918,117.037,181.161,111.189,181.161z"
				/>
		</g>
		<g>
			<path style="fill:#5C546A;" d="M105.887,152H71.424c-4.986,0-9.177,3.459-10.306,8.102c-9.126,1.16-16.204,8.973-16.204,18.408
				v13.255c0,6.832,2.9,13.205,7.953,17.735v-15.084c0-7.308,5.947-13.255,13.255-13.255h45.066c5.848,0,10.604,4.757,10.604,10.604
				v17.732c5.054-4.529,7.953-10.902,7.953-17.732v-15.906C129.746,162.703,119.043,152,105.887,152z"/>
		</g>
		<g>
			<path style="fill:#D8DCE1;" d="M131.33,344h-88c-4.418,0-8-3.582-8-8v-44c0-4.418,3.582-8,8-8h88c4.418,0,8,3.582,8,8v44
				C139.33,340.418,135.749,344,131.33,344z"/>
		</g>
		<g>
			<circle style="fill:#FFFFFF;" cx="87.33" cy="316" r="8"/>
		</g>
	</g>
	<g>
		<g>
			<path style="fill:#00ABFF;" d="M497.052,325.006l-9.07-54.296h-0.026c-1.259-7.342-6.307-14.945-14.901-17.351
				c-0.106-0.03-0.212-0.053-0.321-0.069l-21.161-3.175c-0.129-0.019-0.406-0.03-0.538-0.03c-1.338,0-2.467,0.998-2.63,2.327
				c-1.127,9.149-8.691,16.333-18.425,18.297h-10.62c-9.735-1.965-17.299-9.147-18.424-18.297c-0.166-1.368-1.398-2.397-2.698-2.326
				c-0.155-0.009-0.308,0.004-0.471,0.028l-21.161,3.175c-0.109,0.016-0.215,0.039-0.321,0.069
				c-8.594,2.406-13.641,10.009-14.901,17.351h-0.026l-9.07,54.296c-1.878,9.86,5.68,18.994,15.717,18.994h0.665h112h0.665
				C491.371,344,498.93,334.866,497.052,325.006z"/>
		</g>
		<g>
			<path style="fill:#FDC88E;" d="M424.669,247.435c-9.26,0-17.661-3.974-23.86-10.396c-0.005,3.849-0.145,9.404-1.165,13.457
				c0.669,0.409,1.189,1.081,1.29,1.917c1.323,10.764,11.525,18.88,23.734,18.88c12.206,0,22.409-8.117,23.734-18.88
				c0.103-0.837,0.611-1.508,1.291-1.915c-1.021-4.054-1.161-9.609-1.165-13.459C442.331,243.461,433.929,247.435,424.669,247.435z"
				/>
		</g>
		<g>
			<path style="fill:#FFB980;" d="M448.011,237.528c-6.147,6.123-14.329,9.907-23.342,9.907c-9.26,0-17.661-3.974-23.86-10.396
				c-0.005,3.849-0.145,9.404-1.165,13.457c0.669,0.409,1.189,1.081,1.29,1.917c0.585,4.758,2.909,8.995,6.37,12.246
				C423.266,262.411,441.383,246.65,448.011,237.528z"/>
		</g>
		<g>
			<path style="fill:#FFE1B2;" d="M448.528,181.161h-45.066c-7.308,0-13.255,5.947-13.255,13.255v15.906
				c0,20.465,15.461,37.114,34.463,37.114c19.002,0,34.463-16.649,34.463-37.114v-18.557
				C459.132,185.918,454.376,181.161,448.528,181.161z"/>
		</g>
		<g>
			<path style="fill:#7E5C62;" d="M443.226,152h-34.463c-4.986,0-9.177,3.459-10.306,8.102c-9.126,1.16-16.204,8.973-16.204,18.408
				v13.255c0,6.832,2.9,13.205,7.953,17.735v-15.084c0-7.308,5.947-13.255,13.255-13.255h45.066c5.848,0,10.604,4.757,10.604,10.604
				v17.732c5.054-4.529,7.953-10.902,7.953-17.732v-15.906C467.085,162.703,456.383,152,443.226,152z"/>
		</g>
		<g>
			<path style="fill:#D8DCE1;" d="M468.669,344h-88c-4.418,0-8-3.582-8-8v-44c0-4.418,3.582-8,8-8h88c4.418,0,8,3.582,8,8v44
				C476.669,340.418,473.088,344,468.669,344z"/>
		</g>
		<g>
			<circle style="fill:#FFFFFF;" cx="424.669" cy="316" r="8"/>
		</g>
	</g>
</g>
<g>
</g>
<g>
</g>
<g>
</g>
<g>
</g>
<g>
</g>
<g>
</g>
<g>
</g>
<g>
</g>
<g>
</g>
<g>
</g>
<g>
</g>
<g>
</g>
<g>
</g>
<g>
</g>
<g>
</g>
</svg>
